<svg width="32" height="32" viewBox="0 0 25 29" fill="none" xmlns="http://www.w3.org/2000/svg">
<g filter="url(#filter0_d_2250_453)">
<path d="M4 3.50257C4 2.25457 5.436 1.55257 6.421 2.31857L19.935 12.8316C21.063 13.7086 20.443 15.5156 19.015 15.5156H12.162C11.657 15.5156 11.181 15.7456 10.868 16.1416L6.677 21.4416C5.795 22.5576 4 21.9336 4 20.5116V3.50257ZM19.014 14.0156L5.5 3.50257V20.5116L9.691 15.2116C9.98581 14.8388 10.3612 14.5376 10.7889 14.3304C11.2167 14.1233 11.6857 14.0157 12.161 14.0156H19.014Z" fill="#242424"/>
<path fill-rule="evenodd" clip-rule="evenodd" d="M5.5 3.50257L19.014 14.0156H12.161C11.6857 14.0157 11.2167 14.1233 10.7889 14.3304C10.3612 14.5376 9.98581 14.8388 9.691 15.2116L5.5 20.5116V3.50257Z" fill="#FFCEE7"/>
</g>
<defs>
<filter id="filter0_d_2250_453" x="0" y="0" width="24.5176" height="28.0137" filterUnits="userSpaceOnUse" color-interpolation-filters="sRGB">
<feFlood flood-opacity="0" result="BackgroundImageFix"/>
<feColorMatrix in="SourceAlpha" type="matrix" values="0 0 0 0 0 0 0 0 0 0 0 0 0 0 0 0 0 0 127 0" result="hardAlpha"/>
<feOffset dy="2"/>
<feGaussianBlur stdDeviation="2"/>
<feComposite in2="hardAlpha" operator="out"/>
<feColorMatrix type="matrix" values="0 0 0 0 0 0 0 0 0 0 0 0 0 0 0 0 0 0 0.15 0"/>
<feBlend mode="normal" in2="BackgroundImageFix" result="effect1_dropShadow_2250_453"/>
<feBlend mode="normal" in="SourceGraphic" in2="effect1_dropShadow_2250_453" result="shape"/>
</filter>
</defs>
</svg>
