<svg width="68" height="68" viewBox="0 0 68 68" fill="none" xmlns="http://www.w3.org/2000/svg">
<path d="M68 34C68 29.5351 67.1206 25.1138 65.4119 20.9888C63.7032 16.8637 61.1988 13.1156 58.0416 9.95837C54.8844 6.80118 51.1363 4.29676 47.0112 2.5881C42.8862 0.879436 38.4649 -1.95169e-07 34 0L34 34H68Z" fill="#0204A6"/>
<path d="M1.54972e-06 68C4.46495 68 8.88617 67.1206 13.0112 65.4119C17.1363 63.7032 20.8844 61.1988 24.0416 58.0416C27.1988 54.8844 29.7032 51.1363 31.4119 47.0112C33.1206 42.8862 34 38.4649 34 34L1.54972e-06 34V68Z" fill="#FB9EBB"/>
<path d="M34 0L0 34V0H34Z" fill="#FFCEE7"/>
</svg>
