<svg width="540" height="132" viewBox="0 0 540 132" fill="none" xmlns="http://www.w3.org/2000/svg">
<path d="M132 66C132 57.3328 130.293 48.7504 126.976 40.7429C123.659 32.7354 118.798 25.4596 112.669 19.331C106.54 13.2023 99.2646 8.34076 91.2571 5.02395C83.2496 1.70714 74.6672 -3.78857e-07 66 0L66 66H132Z" fill="#0204A6"/>
<path d="M2.02656e-06 132C8.66725 132 17.2496 130.293 25.2571 126.976C33.2646 123.659 40.5404 118.798 46.669 112.669C52.7977 106.54 57.6592 99.2646 60.9761 91.2571C64.2929 83.2496 66 74.6672 66 66L2.02656e-06 66V132Z" fill="#FB9EBB"/>
<path d="M66 0L0 66V0H66Z" fill="#FFCEE7"/>
<path d="M526.975 112.216L526.72 93.1892L525.06 87.8261V73.0137C525.06 68.9275 523.911 66.0331 521.612 64.3305C519.314 62.5428 516.377 61.649 512.801 61.649C509.737 61.649 506.502 62.2449 503.097 63.4367C499.777 64.6285 496.882 66.3736 494.414 68.6721L487.774 58.5843C490.498 55.6048 494.201 53.2212 498.883 51.4335C503.565 49.6458 508.502 48.752 513.695 48.752C518.888 48.752 523.4 49.6458 527.231 51.4335C531.147 53.2212 534.169 55.8602 536.297 59.3505C538.51 62.7556 539.617 67.0121 539.617 72.1198V92.2954C539.617 95.6154 539.66 98.9354 539.745 102.255C539.83 105.575 539.915 108.896 540 112.216H526.975ZM508.971 113.492C501.99 113.492 496.372 111.79 492.115 108.385C487.859 104.894 485.73 100.425 485.73 94.9769C485.73 91.2313 486.752 87.9538 488.795 85.1445C490.923 82.2502 493.86 79.9942 497.606 78.3768C501.437 76.6742 505.906 75.8229 511.014 75.8229C518.59 75.8229 524.251 77.4829 527.997 80.803C531.828 84.123 533.743 88.5071 533.743 93.9554H530.04C530.04 100.17 528.252 104.98 524.677 108.385C521.101 111.79 515.866 113.492 508.971 113.492ZM513.057 102.639C516.802 102.639 519.739 101.915 521.868 100.468C524.081 98.9354 525.188 96.8923 525.188 94.3385C525.188 91.9549 524.081 90.0395 521.868 88.5923C519.654 87.0599 516.675 86.2938 512.929 86.2938C509.183 86.2938 506.204 87.0599 503.991 88.5923C501.777 90.0395 500.671 91.9974 500.671 94.4662C500.671 96.8498 501.777 98.8077 503.991 100.34C506.289 101.872 509.311 102.639 513.057 102.639Z" fill="#1C1C20"/>
<path d="M386.598 112.216V50.0289H400.644V67.0121L396.686 66.8844C397.878 62.0321 399.708 58.3289 402.177 55.7751C404.645 53.1361 407.327 51.3058 410.221 50.2843C413.201 49.2627 416.053 48.752 418.777 48.752C423.97 48.752 428.354 50.114 431.929 52.8381C435.59 55.5623 438.101 59.691 439.463 65.2244H433.845C435.377 60.7977 437.548 57.3925 440.357 55.0089C443.166 52.6253 446.103 51.0079 449.168 50.1566C452.233 49.2202 454.957 48.752 457.34 48.752C464.065 48.752 469.556 50.9227 473.813 55.2643C478.069 59.5208 480.197 65.9054 480.197 74.4183V112.216H465.64V76.5891C465.64 71.5665 464.534 67.9059 462.32 65.6075C460.192 63.309 457.298 62.1597 453.637 62.1597C449.891 62.1597 446.784 63.4367 444.316 65.9906C441.932 68.4593 440.74 71.9921 440.74 76.5891V112.216H426.055V76.5891C426.055 71.5665 424.949 67.9059 422.735 65.6075C420.607 63.309 417.755 62.1597 414.18 62.1597C410.519 62.1597 407.412 63.4367 404.858 65.9906C402.39 68.4593 401.155 71.9921 401.155 76.5891V112.216H386.598Z" fill="#1C1C20"/>
<path d="M367.05 112.216L366.794 93.1892L365.134 87.8261V73.0137C365.134 68.9275 363.985 66.0331 361.687 64.3305C359.388 62.5428 356.451 61.649 352.876 61.649C349.811 61.649 346.576 62.2449 343.171 63.4367C339.851 64.6285 336.957 66.3736 334.488 68.6721L327.848 58.5843C330.572 55.6048 334.275 53.2212 338.957 51.4335C343.639 49.6458 348.577 48.752 353.77 48.752C358.962 48.752 363.474 49.6458 367.305 51.4335C371.221 53.2212 374.243 55.8602 376.371 59.3505C378.585 62.7556 379.691 67.0121 379.691 72.1198V92.2954C379.691 95.6154 379.734 98.9354 379.819 102.255C379.904 105.575 379.989 108.896 380.074 112.216H367.05ZM349.045 113.492C342.064 113.492 336.446 111.79 332.189 108.385C327.933 104.894 325.805 100.425 325.805 94.9769C325.805 91.2313 326.826 87.9538 328.869 85.1445C330.998 82.2502 333.934 79.9942 337.68 78.3768C341.511 76.6742 345.98 75.8229 351.088 75.8229C358.664 75.8229 364.325 77.4829 368.071 80.803C371.902 84.123 373.817 88.5071 373.817 93.9554H370.114C370.114 100.17 368.327 104.98 364.751 108.385C361.176 111.79 355.94 113.492 349.045 113.492ZM353.131 102.639C356.877 102.639 359.814 101.915 361.942 100.468C364.155 98.9354 365.262 96.8923 365.262 94.3385C365.262 91.9549 364.155 90.0395 361.942 88.5923C359.729 87.0599 356.749 86.2938 353.003 86.2938C349.258 86.2938 346.278 87.0599 344.065 88.5923C341.851 90.0395 340.745 91.9974 340.745 94.4662C340.745 96.8498 341.851 98.8077 344.065 100.34C346.363 101.872 349.385 102.639 353.131 102.639Z" fill="#1C1C20"/>
<path d="M314.753 112.216C309.135 112.216 304.623 110.684 301.218 107.619C297.898 104.555 296.238 100.341 296.238 94.9775V24.8739L302.878 31.5139H285.895V19H310.922V95.2329C310.922 96.595 311.391 97.7442 312.327 98.6806C313.263 99.5319 314.37 99.9576 315.647 99.9576H322.159V112.216H314.753Z" fill="#1C1C20"/>
<path d="M276.817 112.216L276.561 93.1892L274.901 87.8261V73.0137C274.901 68.9275 273.752 66.0331 271.454 64.3305C269.155 62.5428 266.218 61.649 262.643 61.649C259.578 61.649 256.343 62.2449 252.938 63.4367C249.618 64.6285 246.724 66.3736 244.255 68.6721L237.615 58.5843C240.339 55.6048 244.042 53.2212 248.724 51.4335C253.406 49.6458 258.344 48.752 263.537 48.752C268.729 48.752 273.241 49.6458 277.072 51.4335C280.988 53.2212 284.01 55.8602 286.138 59.3505C288.352 62.7556 289.458 67.0121 289.458 72.1198V92.2954C289.458 95.6154 289.501 98.9354 289.586 102.255C289.671 105.575 289.756 108.896 289.841 112.216H276.817ZM258.812 113.492C251.831 113.492 246.213 111.79 241.956 108.385C237.7 104.894 235.572 100.425 235.572 94.9769C235.572 91.2313 236.593 87.9538 238.636 85.1445C240.765 82.2502 243.702 79.9942 247.447 78.3768C251.278 76.6742 255.747 75.8229 260.855 75.8229C268.432 75.8229 274.093 77.4829 277.838 80.803C281.669 84.123 283.584 88.5071 283.584 93.9554H279.881C279.881 100.17 278.094 104.98 274.518 108.385C270.943 111.79 265.707 113.492 258.812 113.492ZM262.898 102.639C266.644 102.639 269.581 101.915 271.709 100.468C273.922 98.9354 275.029 96.8923 275.029 94.3385C275.029 91.9549 273.922 90.0395 271.709 88.5923C269.496 87.0599 266.516 86.2938 262.77 86.2938C259.025 86.2938 256.045 87.0599 253.832 88.5923C251.619 90.0395 250.512 91.9974 250.512 94.4662C250.512 96.8498 251.619 98.8077 253.832 100.34C256.13 101.872 259.152 102.639 262.898 102.639Z" fill="#1C1C20"/>
<path d="M172 112.215V22.8301H202.008C208.307 22.8301 213.798 23.9368 218.48 26.1501C223.162 28.3635 226.823 31.5558 229.462 35.7271C232.101 39.8984 233.42 44.9636 233.42 50.9226C233.42 56.7114 232.101 61.734 229.462 65.9904C226.823 70.1617 223.162 73.3541 218.48 75.5674C213.798 77.6956 208.307 78.7598 202.008 78.7598H179.151V65.735H202.774C207.371 65.735 211.032 64.373 213.756 61.6488C216.48 58.8396 217.842 55.2642 217.842 50.9226C217.842 46.4959 216.48 42.9205 213.756 40.1964C211.032 37.4723 207.371 36.1102 202.774 36.1102H181.066L187.579 30.1086V112.215H172Z" fill="#1C1C20"/>
</svg>
