<svg width="633" height="190" viewBox="0 0 633 190" fill="none" xmlns="http://www.w3.org/2000/svg">
<path d="M596.306 120.887C591.683 120.887 587.503 120.032 583.767 118.322C580.03 116.581 577.069 114.064 574.885 110.77C572.731 107.477 571.655 103.44 571.655 98.6587C571.655 94.5423 572.446 91.1542 574.03 88.4944C575.613 85.8346 577.75 83.7289 580.442 82.1773C583.133 80.6257 586.141 79.4541 589.466 78.6625C592.791 77.8709 596.179 77.2693 599.63 76.8576C604 76.351 607.547 75.9394 610.27 75.6227C612.993 75.2744 614.972 74.7203 616.207 73.9603C617.442 73.2004 618.059 71.9655 618.059 70.2556V69.9231C618.059 65.775 616.888 62.5611 614.544 60.2812C612.233 58.0014 608.782 56.8614 604.19 56.8614C599.409 56.8614 595.641 57.9222 592.886 60.0437C590.163 62.1336 588.279 64.461 587.234 67.0258L573.887 63.986C575.47 59.5529 577.782 55.9748 580.822 53.2517C583.893 50.4968 587.424 48.502 591.413 47.2671C595.403 46.0005 599.599 45.3672 604 45.3672C606.913 45.3672 610.001 45.7155 613.262 46.4121C616.555 47.0771 619.627 48.312 622.477 50.1169C625.358 51.9218 627.717 54.5024 629.554 57.8589C631.39 61.1837 632.308 65.5059 632.308 70.8255V119.272H618.439V109.298H617.869C616.951 111.135 615.574 112.939 613.737 114.713C611.901 116.486 609.542 117.958 606.66 119.13C603.779 120.302 600.327 120.887 596.306 120.887ZM599.393 109.488C603.319 109.488 606.676 108.712 609.462 107.161C612.28 105.609 614.418 103.583 615.874 101.081C617.363 98.5479 618.107 95.8406 618.107 92.9591V83.5547C617.6 84.0614 616.619 84.5363 615.162 84.9796C613.737 85.3913 612.106 85.7554 610.27 86.0721C608.433 86.357 606.644 86.6262 604.903 86.8795C603.161 87.1012 601.704 87.2911 600.533 87.4495C597.778 87.7978 595.261 88.3836 592.981 89.2069C590.733 90.0301 588.928 91.2176 587.566 92.7691C586.236 94.289 585.571 96.3156 585.571 98.8487C585.571 102.364 586.87 105.023 589.466 106.828C592.063 108.601 595.372 109.488 599.393 109.488Z" fill="#1C1C20"/>
<path d="M466.421 119.272V46.3171H480.053V58.1914H480.955C482.475 54.1699 484.961 51.0352 488.412 48.787C491.864 46.5071 495.996 45.3672 500.809 45.3672C505.686 45.3672 509.77 46.5071 513.063 48.787C516.388 51.0668 518.842 54.2016 520.425 58.1914H521.185C522.927 54.2966 525.698 51.1935 529.497 48.882C533.297 46.5388 537.825 45.3672 543.081 45.3672C549.699 45.3672 555.098 47.4412 559.278 51.5893C563.489 55.7373 565.595 61.9911 565.595 70.3506V119.272H551.393V71.6805C551.393 66.7408 550.048 63.1627 547.356 60.9462C544.665 58.7297 541.451 57.6214 537.714 57.6214C533.091 57.6214 529.497 59.0463 526.932 61.8961C524.368 64.7143 523.085 68.3399 523.085 72.7729V119.272H508.931V70.778C508.931 66.82 507.696 63.6377 505.226 61.2312C502.757 58.8246 499.543 57.6214 495.585 57.6214C492.893 57.6214 490.407 58.3338 488.127 59.7588C485.879 61.152 484.059 63.0994 482.665 65.6009C481.304 68.1024 480.623 70.9997 480.623 74.2928V119.272H466.421Z" fill="#1C1C20"/>
<path d="M423.348 120.887C418.725 120.887 414.545 120.032 410.809 118.322C407.073 116.581 404.112 114.064 401.927 110.77C399.774 107.477 398.697 103.44 398.697 98.6587C398.697 94.5423 399.489 91.1542 401.072 88.4944C402.655 85.8346 404.793 83.7289 407.484 82.1773C410.176 80.6257 413.184 79.4541 416.509 78.6625C419.833 77.8709 423.222 77.2693 426.673 76.8576C431.043 76.351 434.589 75.9394 437.312 75.6227C440.035 75.2744 442.014 74.7203 443.249 73.9603C444.484 73.2004 445.102 71.9655 445.102 70.2556V69.9231C445.102 65.775 443.93 62.5611 441.587 60.2812C439.275 58.0014 435.824 56.8614 431.233 56.8614C426.451 56.8614 422.683 57.9222 419.928 60.0437C417.205 62.1336 415.321 64.461 414.276 67.0258L400.93 63.986C402.513 59.5529 404.824 55.9748 407.864 53.2517C410.936 50.4968 414.466 48.502 418.456 47.2671C422.446 46.0005 426.641 45.3672 431.043 45.3672C433.956 45.3672 437.043 45.7155 440.305 46.4121C443.598 47.0771 446.669 48.312 449.519 50.1169C452.4 51.9218 454.759 54.5024 456.596 57.8589C458.433 61.1837 459.351 65.5059 459.351 70.8255V119.272H445.482V109.298H444.912C443.994 111.135 442.616 112.939 440.78 114.713C438.943 116.486 436.584 117.958 433.703 119.13C430.821 120.302 427.37 120.887 423.348 120.887ZM426.435 109.488C430.362 109.488 433.718 108.712 436.505 107.161C439.323 105.609 441.46 103.583 442.917 101.081C444.405 98.5479 445.149 95.8406 445.149 92.9591V83.5547C444.643 84.0614 443.661 84.5363 442.204 84.9796C440.78 85.3913 439.149 85.7554 437.312 86.0721C435.476 86.357 433.687 86.6262 431.945 86.8795C430.204 87.1012 428.747 87.2911 427.575 87.4495C424.821 87.7978 422.303 88.3836 420.023 89.2069C417.775 90.0301 415.97 91.2176 414.609 92.7691C413.279 94.289 412.614 96.3156 412.614 98.8487C412.614 102.364 413.912 105.023 416.509 106.828C419.105 108.601 422.414 109.488 426.435 109.488Z" fill="#1C1C20"/>
<path d="M392.566 22V119.274H378.365V22H392.566Z" fill="#1C1C20"/>
<path d="M335.292 120.887C330.669 120.887 326.489 120.032 322.753 118.322C319.016 116.581 316.056 114.064 313.871 110.77C311.718 107.477 310.641 103.44 310.641 98.6587C310.641 94.5423 311.433 91.1542 313.016 88.4944C314.599 85.8346 316.737 83.7289 319.428 82.1773C322.12 80.6257 325.128 79.4541 328.452 78.6625C331.777 77.8709 335.165 77.2693 338.617 76.8576C342.987 76.351 346.533 75.9394 349.256 75.6227C351.979 75.2744 353.958 74.7203 355.193 73.9603C356.428 73.2004 357.046 71.9655 357.046 70.2556V69.9231C357.046 65.775 355.874 62.5611 353.531 60.2812C351.219 58.0014 347.768 56.8614 343.177 56.8614C338.395 56.8614 334.627 57.9222 331.872 60.0437C329.149 62.1336 327.265 64.461 326.22 67.0258L312.873 63.986C314.457 59.5529 316.768 55.9748 319.808 53.2517C322.879 50.4968 326.41 48.502 330.4 47.2671C334.39 46.0005 338.585 45.3672 342.987 45.3672C345.9 45.3672 348.987 45.7155 352.248 46.4121C355.542 47.0771 358.613 48.312 361.463 50.1169C364.344 51.9218 366.703 54.5024 368.54 57.8589C370.376 61.1837 371.295 65.5059 371.295 70.8255V119.272H357.426V109.298H356.856C355.937 111.135 354.56 112.939 352.723 114.713C350.887 116.486 348.528 117.958 345.646 119.13C342.765 120.302 339.313 120.887 335.292 120.887ZM338.379 109.488C342.306 109.488 345.662 108.712 348.449 107.161C351.267 105.609 353.404 103.583 354.861 101.081C356.349 98.5479 357.093 95.8406 357.093 92.9591V83.5547C356.586 84.0614 355.605 84.5363 354.148 84.9796C352.723 85.3913 351.093 85.7554 349.256 86.0721C347.42 86.357 345.631 86.6262 343.889 86.8795C342.147 87.1012 340.691 87.2911 339.519 87.4495C336.764 87.7978 334.247 88.3836 331.967 89.2069C329.719 90.0301 327.914 91.2176 326.553 92.7691C325.223 94.289 324.558 96.3156 324.558 98.8487C324.558 102.364 325.856 105.023 328.452 106.828C331.049 108.601 334.358 109.488 338.379 109.488Z" fill="#1C1C20"/>
<path d="M241 119.274V22H275.673C283.241 22 289.51 23.3774 294.482 26.1322C299.453 28.8871 303.173 32.6551 305.643 37.4365C308.113 42.1862 309.348 47.5375 309.348 53.4905C309.348 59.4751 308.097 64.8581 305.596 69.6394C303.126 74.3891 299.39 78.1572 294.387 80.9437C289.415 83.6985 283.161 85.0759 275.625 85.0759H251.782V72.6317H274.295C279.077 72.6317 282.956 71.8085 285.932 70.1619C288.909 68.4837 291.093 66.2038 292.487 63.3223C293.88 60.4408 294.577 57.1636 294.577 53.4905C294.577 49.8174 293.88 46.5559 292.487 43.7061C291.093 40.8563 288.893 38.6239 285.885 37.009C282.908 35.3941 278.982 34.5867 274.105 34.5867H255.677V119.274H241Z" fill="#1C1C20"/>
<path d="M543.084 161.784C541.928 161.784 540.965 161.478 540.195 160.866C539.425 160.255 538.887 159.402 538.581 158.308C538.275 157.213 538.242 155.938 538.48 154.483C538.725 153.034 539.18 151.765 539.847 150.677C540.519 149.583 541.341 148.733 542.314 148.127C543.292 147.516 544.359 147.21 545.514 147.21C546.377 147.21 547.064 147.363 547.578 147.669C548.098 147.968 548.492 148.341 548.761 148.788C549.03 149.234 549.223 149.668 549.339 150.09H549.486L550.715 142.707H552.356L549.238 161.49H547.651L548.092 158.876H547.89C547.627 159.304 547.282 159.744 546.854 160.197C546.432 160.643 545.912 161.019 545.294 161.325C544.677 161.631 543.94 161.784 543.084 161.784ZM543.442 160.289C544.353 160.289 545.175 160.041 545.909 159.546C546.649 159.044 547.266 158.357 547.761 157.482C548.263 156.602 548.605 155.593 548.789 154.456C548.978 153.331 548.975 152.337 548.779 151.475C548.584 150.607 548.205 149.928 547.642 149.439C547.08 148.944 546.337 148.696 545.414 148.696C544.478 148.696 543.647 148.953 542.919 149.466C542.191 149.974 541.589 150.662 541.112 151.53C540.641 152.398 540.314 153.373 540.131 154.456C539.954 155.55 539.954 156.538 540.131 157.418C540.308 158.298 540.669 158.999 541.213 159.518C541.763 160.032 542.506 160.289 543.442 160.289Z" fill="black"/>
<path d="M528.692 161.784C527.378 161.784 526.292 161.479 525.436 160.867C524.58 160.25 523.981 159.397 523.639 158.308C523.296 157.214 523.244 155.954 523.483 154.53C523.721 153.111 524.192 151.852 524.895 150.751C525.598 149.644 526.467 148.779 527.5 148.156C528.533 147.526 529.655 147.211 530.866 147.211C531.63 147.211 532.345 147.352 533.012 147.633C533.678 147.908 534.244 148.333 534.709 148.908C535.179 149.476 535.506 150.195 535.69 151.063C535.873 151.925 535.867 152.946 535.672 154.126L535.543 154.933H524.537L524.767 153.493H534.112C534.265 152.588 534.222 151.775 533.984 151.054C533.746 150.332 533.339 149.761 532.764 149.339C532.196 148.911 531.489 148.697 530.646 148.697C529.784 148.697 528.967 148.938 528.197 149.421C527.433 149.904 526.784 150.534 526.253 151.311C525.727 152.081 525.387 152.903 525.235 153.778L525.051 154.86C524.855 156.052 524.88 157.052 525.124 157.859C525.369 158.66 525.812 159.265 526.454 159.675C527.096 160.085 527.919 160.289 528.921 160.289C529.594 160.289 530.202 160.185 530.747 159.978C531.291 159.77 531.765 159.491 532.168 159.143C532.572 158.788 532.896 158.4 533.14 157.978L534.599 158.483C534.287 159.076 533.846 159.623 533.278 160.124C532.715 160.626 532.046 161.029 531.269 161.335C530.499 161.635 529.64 161.784 528.692 161.784Z" fill="black"/>
<path d="M517.074 161.491L519.422 147.404H521.064L518.716 161.491H517.074ZM520.834 144.955C520.492 144.955 520.202 144.839 519.963 144.607C519.731 144.374 519.618 144.093 519.624 143.763C519.636 143.451 519.761 143.182 520 142.956C520.244 142.724 520.532 142.607 520.862 142.607C521.204 142.607 521.495 142.727 521.733 142.965C521.972 143.197 522.085 143.479 522.073 143.809C522.067 144.121 521.941 144.39 521.697 144.616C521.452 144.842 521.165 144.955 520.834 144.955Z" fill="black"/>
<path d="M516.145 147.403L515.907 148.825H508.992L509.221 147.403H516.145ZM509.038 161.49L511.725 145.339C511.847 144.581 512.125 143.942 512.559 143.423C513 142.903 513.525 142.509 514.137 142.239C514.748 141.97 515.375 141.836 516.017 141.836C516.445 141.836 516.794 141.873 517.063 141.946C517.332 142.013 517.543 142.081 517.695 142.148L516.998 143.579C516.876 143.542 516.729 143.499 516.558 143.45C516.393 143.401 516.176 143.377 515.907 143.377C515.198 143.377 514.617 143.575 514.164 143.973C513.712 144.37 513.421 144.939 513.293 145.679L510.67 161.49H509.038Z" fill="black"/>
<path d="M502.042 161.491L504.39 147.404H506.032L503.684 161.491H502.042ZM505.802 144.955C505.46 144.955 505.169 144.839 504.931 144.607C504.699 144.374 504.586 144.093 504.592 143.763C504.604 143.451 504.729 143.182 504.968 142.956C505.212 142.724 505.5 142.607 505.83 142.607C506.172 142.607 506.463 142.727 506.701 142.965C506.94 143.197 507.053 143.479 507.04 143.809C507.034 144.121 506.909 144.39 506.664 144.616C506.42 144.842 506.132 144.955 505.802 144.955Z" fill="black"/>
<path d="M500.823 142.707L497.704 161.49H496.072L499.19 142.707H500.823Z" fill="black"/>
<path d="M479.68 166.774L482.927 147.404H484.514L484.073 150.091H484.266C484.523 149.669 484.856 149.235 485.266 148.788C485.681 148.342 486.198 147.969 486.816 147.67C487.439 147.364 488.185 147.211 489.053 147.211C490.215 147.211 491.178 147.514 491.942 148.119C492.713 148.724 493.251 149.574 493.557 150.669C493.868 151.763 493.902 153.035 493.657 154.484C493.419 155.939 492.963 157.214 492.291 158.308C491.618 159.403 490.796 160.256 489.824 160.867C488.858 161.479 487.8 161.784 486.65 161.784C485.801 161.784 485.113 161.631 484.587 161.326C484.067 161.02 483.67 160.644 483.395 160.198C483.119 159.745 482.921 159.305 482.798 158.877H482.652L481.331 166.774H479.68ZM483.367 154.456C483.184 155.594 483.184 156.602 483.367 157.483C483.551 158.357 483.92 159.045 484.477 159.546C485.033 160.042 485.767 160.289 486.678 160.289C487.613 160.289 488.448 160.033 489.182 159.519C489.915 158.999 490.527 158.299 491.016 157.419C491.505 156.538 491.841 155.551 492.025 154.456C492.196 153.374 492.19 152.399 492.007 151.531C491.823 150.662 491.456 149.975 490.906 149.467C490.356 148.954 489.607 148.697 488.659 148.697C487.742 148.697 486.916 148.944 486.183 149.44C485.455 149.929 484.85 150.607 484.367 151.476C483.884 152.338 483.551 153.331 483.367 154.456Z" fill="black"/>
<path d="M458.391 161.489L460.739 147.402H462.325L461.958 149.567H462.105C462.515 148.839 463.083 148.267 463.811 147.852C464.539 147.43 465.364 147.219 466.287 147.219C467.253 147.219 468.011 147.448 468.562 147.907C469.112 148.359 469.479 148.983 469.662 149.778H469.782C470.222 148.995 470.842 148.374 471.643 147.916C472.444 147.451 473.358 147.219 474.386 147.219C475.688 147.219 476.651 147.631 477.275 148.457C477.898 149.282 478.079 150.481 477.816 152.052L476.238 161.489H474.606L476.183 152.052C476.361 150.939 476.217 150.105 475.752 149.548C475.287 148.992 474.59 148.714 473.661 148.714C472.585 148.714 471.695 149.044 470.992 149.704C470.295 150.358 469.864 151.196 469.699 152.217L468.149 161.489H466.48L468.085 151.905C468.238 150.952 468.1 150.181 467.672 149.594C467.25 149.007 466.556 148.714 465.59 148.714C464.936 148.714 464.321 148.876 463.747 149.2C463.178 149.518 462.695 149.961 462.298 150.53C461.906 151.092 461.65 151.737 461.527 152.465L460.023 161.489H458.391Z" fill="black"/>
<path d="M452.432 161.491L454.78 147.404H456.421L454.073 161.491H452.432ZM456.192 144.955C455.85 144.955 455.559 144.839 455.321 144.607C455.088 144.374 454.975 144.093 454.981 143.763C454.994 143.451 455.119 143.182 455.357 142.956C455.602 142.724 455.889 142.607 456.219 142.607C456.562 142.607 456.852 142.727 457.091 142.965C457.329 143.197 457.442 143.479 457.43 143.809C457.424 144.121 457.299 144.39 457.054 144.616C456.809 144.842 456.522 144.955 456.192 144.955Z" fill="black"/>
<path d="M450.472 150.494L448.903 150.898C448.824 150.476 448.677 150.097 448.463 149.761C448.255 149.418 447.952 149.149 447.555 148.954C447.164 148.752 446.65 148.651 446.014 148.651C445.06 148.651 444.238 148.883 443.547 149.348C442.856 149.806 442.453 150.393 442.336 151.109C442.239 151.708 442.364 152.194 442.713 152.567C443.067 152.94 443.66 153.234 444.492 153.448L446.546 153.97C447.683 154.264 448.494 154.722 448.977 155.346C449.466 155.97 449.634 156.758 449.481 157.712C449.347 158.507 449.007 159.21 448.463 159.822C447.925 160.433 447.234 160.913 446.39 161.262C445.553 161.61 444.617 161.784 443.584 161.784C442.196 161.784 441.104 161.472 440.31 160.849C439.521 160.225 439.099 159.326 439.044 158.152L440.686 157.786C440.735 158.617 441.019 159.247 441.539 159.675C442.064 160.103 442.804 160.317 443.758 160.317C444.846 160.317 445.76 160.069 446.5 159.574C447.24 159.079 447.665 158.467 447.775 157.74C447.879 157.165 447.772 156.688 447.454 156.309C447.142 155.93 446.61 155.649 445.858 155.465L443.666 154.915C442.486 154.615 441.652 154.148 441.163 153.512C440.68 152.87 440.517 152.078 440.676 151.136C440.805 150.36 441.129 149.678 441.649 149.091C442.168 148.504 442.826 148.046 443.62 147.715C444.415 147.379 445.284 147.211 446.225 147.211C447.521 147.211 448.509 147.504 449.188 148.091C449.866 148.672 450.294 149.473 450.472 150.494Z" fill="black"/>
<path d="M427.99 158.924L427.641 159.905C427.421 160.566 427.152 161.29 426.834 162.079C426.516 162.874 426.201 163.629 425.889 164.344C425.578 165.066 425.315 165.643 425.101 166.078H423.844C423.985 165.662 424.168 165.133 424.395 164.491C424.627 163.849 424.874 163.14 425.137 162.363C425.4 161.587 425.654 160.783 425.899 159.951L426.21 158.924H427.99Z" fill="black"/>
<path d="M422.93 150.494L421.361 150.898C421.282 150.476 421.135 150.097 420.921 149.761C420.713 149.418 420.41 149.149 420.013 148.954C419.622 148.752 419.108 148.651 418.472 148.651C417.518 148.651 416.696 148.883 416.005 149.348C415.314 149.806 414.911 150.393 414.794 151.109C414.697 151.708 414.822 152.194 415.171 152.567C415.525 152.94 416.118 153.234 416.95 153.448L419.004 153.97C420.141 154.264 420.952 154.722 421.435 155.346C421.924 155.97 422.092 156.758 421.939 157.712C421.805 158.507 421.465 159.21 420.921 159.822C420.383 160.433 419.692 160.913 418.848 161.262C418.011 161.61 417.075 161.784 416.042 161.784C414.654 161.784 413.562 161.472 412.768 160.849C411.979 160.225 411.557 159.326 411.502 158.152L413.144 157.786C413.193 158.617 413.477 159.247 413.997 159.675C414.522 160.103 415.262 160.317 416.216 160.317C417.304 160.317 418.218 160.069 418.958 159.574C419.698 159.079 420.123 158.467 420.233 157.74C420.337 157.165 420.23 156.688 419.912 156.309C419.6 155.93 419.068 155.649 418.316 155.465L416.124 154.915C414.944 154.615 414.11 154.148 413.621 153.512C413.138 152.87 412.975 152.078 413.134 151.136C413.263 150.36 413.587 149.678 414.107 149.091C414.626 148.504 415.284 148.046 416.078 147.715C416.873 147.379 417.742 147.211 418.683 147.211C419.979 147.211 420.967 147.504 421.646 148.091C422.324 148.672 422.752 149.473 422.93 150.494Z" fill="black"/>
<path d="M400.613 167.067C399.653 167.067 398.831 166.942 398.146 166.691C397.461 166.446 396.905 166.11 396.477 165.682C396.055 165.254 395.746 164.774 395.551 164.242L397.037 163.371C397.171 163.726 397.376 164.074 397.651 164.417C397.926 164.759 398.314 165.04 398.816 165.26C399.317 165.487 399.974 165.6 400.788 165.6C402.029 165.6 403.096 165.285 403.988 164.655C404.881 164.031 405.438 163.065 405.658 161.757L406.153 158.583H406.006C405.756 159.011 405.419 159.439 404.997 159.867C404.575 160.289 404.053 160.641 403.429 160.922C402.811 161.203 402.081 161.344 401.237 161.344C400.112 161.344 399.158 161.066 398.376 160.509C397.593 159.953 397.04 159.158 396.716 158.125C396.391 157.085 396.352 155.847 396.596 154.411C396.829 152.986 397.275 151.732 397.935 150.65C398.602 149.568 399.421 148.724 400.393 148.119C401.372 147.514 402.442 147.211 403.603 147.211C404.465 147.211 405.156 147.364 405.676 147.67C406.196 147.969 406.59 148.342 406.859 148.788C407.134 149.235 407.333 149.669 407.455 150.091H407.62L408.061 147.404H409.656L407.272 161.858C407.07 163.05 406.654 164.031 406.025 164.802C405.395 165.572 404.612 166.141 403.677 166.508C402.747 166.881 401.726 167.067 400.613 167.067ZM401.604 159.849C402.509 159.849 403.322 159.632 404.044 159.198C404.771 158.758 405.379 158.131 405.869 157.318C406.364 156.499 406.703 155.52 406.887 154.383C407.07 153.282 407.061 152.307 406.859 151.457C406.663 150.601 406.281 149.929 405.713 149.44C405.15 148.944 404.41 148.697 403.493 148.697C402.546 148.697 401.708 148.95 400.98 149.458C400.259 149.965 399.663 150.65 399.192 151.512C398.727 152.368 398.406 153.325 398.229 154.383C398.058 155.459 398.064 156.41 398.247 157.235C398.437 158.055 398.81 158.697 399.366 159.161C399.922 159.62 400.668 159.849 401.604 159.849Z" fill="black"/>
<path d="M384.254 152.685L382.796 161.489H381.163L383.511 147.402H385.098L384.731 149.612H384.878C385.318 148.891 385.926 148.313 386.703 147.879C387.485 147.439 388.393 147.219 389.427 147.219C390.368 147.219 391.163 147.417 391.811 147.815C392.465 148.206 392.93 148.784 393.205 149.548C393.486 150.313 393.535 151.251 393.352 152.364L391.82 161.489H390.188L391.692 152.465C391.881 151.315 391.713 150.404 391.187 149.732C390.668 149.053 389.864 148.714 388.775 148.714C388.036 148.714 387.348 148.873 386.712 149.191C386.082 149.509 385.55 149.967 385.116 150.566C384.682 151.159 384.394 151.866 384.254 152.685Z" fill="black"/>
<path d="M375.204 161.491L377.551 147.404H379.193L376.845 161.491H375.204ZM378.964 144.955C378.621 144.955 378.331 144.839 378.093 144.607C377.86 144.374 377.747 144.093 377.753 143.763C377.765 143.451 377.891 143.182 378.129 142.956C378.374 142.724 378.661 142.607 378.991 142.607C379.334 142.607 379.624 142.727 379.863 142.965C380.101 143.197 380.214 143.479 380.202 143.809C380.196 144.121 380.071 144.39 379.826 144.616C379.581 144.842 379.294 144.955 378.964 144.955Z" fill="black"/>
<path d="M363.982 156.171L364.313 154.015H364.679L372.374 147.403H374.465L366.862 153.933L366.716 153.96L363.982 156.171ZM361.616 161.49L364.734 142.707H366.367L363.249 161.49H361.616ZM370.421 161.49L365.881 154.254L367.211 153.126L372.484 161.49H370.421Z" fill="black"/>
<path d="M351.897 161.784C350.662 161.784 349.623 161.472 348.779 160.849C347.935 160.219 347.339 159.348 346.99 158.235C346.642 157.122 346.584 155.838 346.816 154.383C347.049 152.964 347.51 151.717 348.201 150.641C348.898 149.559 349.754 148.718 350.769 148.119C351.784 147.514 352.888 147.211 354.08 147.211C355.321 147.211 356.361 147.526 357.198 148.156C358.042 148.785 358.638 149.657 358.987 150.769C359.341 151.882 359.402 153.169 359.17 154.631C358.938 156.043 358.473 157.287 357.776 158.363C357.079 159.433 356.223 160.271 355.208 160.876C354.199 161.482 353.096 161.784 351.897 161.784ZM351.915 160.289C352.918 160.289 353.811 160.023 354.594 159.491C355.382 158.953 356.033 158.238 356.547 157.345C357.061 156.447 357.406 155.459 357.583 154.383C357.748 153.356 357.73 152.411 357.528 151.549C357.327 150.687 356.938 149.996 356.364 149.476C355.789 148.957 355.025 148.697 354.071 148.697C353.074 148.697 352.181 148.969 351.393 149.513C350.604 150.051 349.953 150.773 349.439 151.677C348.926 152.576 348.583 153.561 348.412 154.631C348.241 155.664 348.253 156.609 348.449 157.465C348.65 158.321 349.039 159.005 349.613 159.519C350.194 160.033 350.962 160.289 351.915 160.289Z" fill="black"/>
<path d="M336.638 161.784C335.403 161.784 334.363 161.472 333.52 160.849C332.676 160.219 332.08 159.348 331.731 158.235C331.383 157.122 331.325 155.838 331.557 154.383C331.789 152.964 332.251 151.717 332.942 150.641C333.639 149.559 334.495 148.718 335.51 148.119C336.525 147.514 337.628 147.211 338.821 147.211C340.062 147.211 341.101 147.526 341.939 148.156C342.783 148.785 343.379 149.657 343.727 150.769C344.082 151.882 344.143 153.169 343.911 154.631C343.678 156.043 343.214 157.287 342.517 158.363C341.82 159.433 340.964 160.271 339.949 160.876C338.94 161.482 337.836 161.784 336.638 161.784ZM336.656 160.289C337.659 160.289 338.552 160.023 339.334 159.491C340.123 158.953 340.774 158.238 341.288 157.345C341.801 156.447 342.147 155.459 342.324 154.383C342.489 153.356 342.471 152.411 342.269 151.549C342.067 150.687 341.679 149.996 341.104 149.476C340.53 148.957 339.765 148.697 338.811 148.697C337.815 148.697 336.922 148.969 336.133 149.513C335.345 150.051 334.694 150.773 334.18 151.677C333.666 152.576 333.324 153.561 333.153 154.631C332.982 155.664 332.994 156.609 333.189 157.465C333.391 158.321 333.779 159.005 334.354 159.519C334.935 160.033 335.702 160.289 336.656 160.289Z" fill="black"/>
<path d="M315.599 161.49L318.717 142.707H320.359L319.148 150.09H319.295C319.545 149.668 319.879 149.234 320.294 148.788C320.716 148.341 321.236 147.968 321.854 147.669C322.471 147.363 323.211 147.21 324.073 147.21C325.229 147.21 326.192 147.516 326.962 148.127C327.739 148.733 328.28 149.583 328.585 150.677C328.891 151.765 328.925 153.034 328.686 154.483C328.442 155.938 327.986 157.213 327.32 158.308C326.653 159.402 325.834 160.255 324.862 160.866C323.89 161.478 322.829 161.784 321.679 161.784C320.823 161.784 320.132 161.631 319.607 161.325C319.087 161.019 318.689 160.643 318.414 160.197C318.145 159.744 317.95 159.304 317.827 158.876H317.626L317.185 161.49H315.599ZM318.387 154.456C318.203 155.593 318.203 156.602 318.387 157.482C318.576 158.357 318.946 159.044 319.496 159.546C320.053 160.041 320.787 160.289 321.698 160.289C322.633 160.289 323.468 160.032 324.201 159.518C324.941 158.999 325.553 158.298 326.036 157.418C326.525 156.538 326.861 155.55 327.045 154.456C327.222 153.373 327.219 152.398 327.035 151.53C326.852 150.662 326.482 149.974 325.926 149.466C325.369 148.953 324.62 148.696 323.679 148.696C322.762 148.696 321.936 148.944 321.202 149.439C320.475 149.928 319.869 150.607 319.386 151.475C318.903 152.337 318.57 153.331 318.387 154.456Z" fill="black"/>
<path d="M296.13 152.685L294.672 161.489H293.039L295.387 147.402H296.974L296.607 149.612H296.753C297.194 148.891 297.802 148.313 298.579 147.879C299.361 147.439 300.269 147.219 301.303 147.219C302.244 147.219 303.039 147.417 303.687 147.815C304.341 148.206 304.806 148.784 305.081 149.548C305.362 150.313 305.411 151.251 305.228 152.364L303.696 161.489H302.064L303.568 152.465C303.757 151.315 303.589 150.404 303.063 149.732C302.544 149.053 301.74 148.714 300.651 148.714C299.912 148.714 299.224 148.873 298.588 149.191C297.958 149.509 297.426 149.967 296.992 150.566C296.558 151.159 296.27 151.866 296.13 152.685Z" fill="black"/>
<path d="M283.32 161.784C282.085 161.784 281.045 161.472 280.202 160.849C279.358 160.219 278.762 159.348 278.413 158.235C278.065 157.122 278.007 155.838 278.239 154.383C278.471 152.964 278.933 151.717 279.624 150.641C280.321 149.559 281.177 148.718 282.192 148.119C283.207 147.514 284.31 147.211 285.503 147.211C286.744 147.211 287.783 147.526 288.621 148.156C289.465 148.785 290.061 149.657 290.409 150.769C290.764 151.882 290.825 153.169 290.593 154.631C290.361 156.043 289.896 157.287 289.199 158.363C288.502 159.433 287.646 160.271 286.631 160.876C285.622 161.482 284.518 161.784 283.32 161.784ZM283.338 160.289C284.341 160.289 285.234 160.023 286.016 159.491C286.805 158.953 287.456 158.238 287.97 157.345C288.483 156.447 288.829 155.459 289.006 154.383C289.171 153.356 289.153 152.411 288.951 151.549C288.749 150.687 288.361 149.996 287.786 149.476C287.212 148.957 286.447 148.697 285.494 148.697C284.497 148.697 283.604 148.969 282.816 149.513C282.027 150.051 281.376 150.773 280.862 151.677C280.348 152.576 280.006 153.561 279.835 154.631C279.664 155.664 279.676 156.609 279.872 157.465C280.073 158.321 280.462 159.005 281.036 159.519C281.617 160.033 282.384 160.289 283.338 160.289Z" fill="black"/>
<path d="M276.579 142.707L273.461 161.49H271.828L274.946 142.707H276.579Z" fill="black"/>
<path d="M261.349 161.812C260.5 161.812 259.751 161.647 259.103 161.317C258.454 160.98 257.971 160.497 257.653 159.867C257.342 159.232 257.256 158.461 257.397 157.556C257.519 156.859 257.751 156.272 258.094 155.795C258.442 155.318 258.882 154.927 259.414 154.621C259.946 154.31 260.558 154.065 261.249 153.888C261.94 153.71 262.692 153.576 263.505 153.484C264.3 153.386 264.978 153.301 265.541 153.227C266.103 153.154 266.541 153.038 266.852 152.879C267.164 152.72 267.351 152.463 267.412 152.108L267.467 151.778C267.626 150.818 267.479 150.063 267.027 149.513C266.574 148.957 265.816 148.678 264.752 148.678C263.737 148.678 262.857 148.905 262.111 149.357C261.371 149.803 260.821 150.326 260.46 150.925L259.011 150.366C259.451 149.596 259.992 148.981 260.634 148.522C261.276 148.058 261.964 147.725 262.698 147.523C263.431 147.315 264.156 147.211 264.871 147.211C265.409 147.211 265.957 147.281 266.513 147.422C267.069 147.563 267.568 147.807 268.008 148.156C268.454 148.498 268.781 148.978 268.989 149.596C269.203 150.207 269.234 150.983 269.081 151.925L267.485 161.491H265.853L266.229 159.262H266.128C265.871 159.678 265.516 160.081 265.064 160.473C264.618 160.864 264.083 161.185 263.459 161.436C262.835 161.686 262.132 161.812 261.349 161.812ZM261.762 160.317C262.63 160.317 263.416 160.124 264.119 159.739C264.829 159.354 265.409 158.843 265.862 158.207C266.32 157.565 266.614 156.859 266.742 156.089L267.082 154.053C266.947 154.169 266.727 154.273 266.421 154.365C266.122 154.456 265.782 154.539 265.403 154.612C265.03 154.68 264.654 154.738 264.275 154.787C263.902 154.835 263.572 154.878 263.285 154.915C262.471 155.013 261.762 155.166 261.157 155.374C260.558 155.581 260.078 155.869 259.717 156.236C259.356 156.596 259.13 157.061 259.038 157.63C258.898 158.486 259.084 159.149 259.598 159.62C260.117 160.085 260.839 160.317 261.762 160.317Z" fill="black"/>
<path d="M254.068 147.504C254.11 146.403 253.783 145.541 253.086 144.918C252.395 144.294 251.426 143.982 250.179 143.982C249.311 143.982 248.516 144.135 247.794 144.441C247.079 144.74 246.489 145.153 246.024 145.679C245.566 146.205 245.281 146.804 245.171 147.477C245.092 147.972 245.128 148.406 245.281 148.779C245.434 149.146 245.67 149.464 245.988 149.733C246.305 150.002 246.669 150.231 247.079 150.421C247.495 150.61 247.917 150.769 248.345 150.897L250.243 151.466C250.806 151.631 251.365 151.842 251.921 152.099C252.478 152.356 252.973 152.677 253.407 153.062C253.841 153.447 254.162 153.921 254.37 154.483C254.584 155.046 254.627 155.719 254.499 156.501C254.327 157.516 253.918 158.424 253.27 159.225C252.628 160.02 251.784 160.65 250.738 161.114C249.693 161.579 248.485 161.811 247.116 161.811C245.838 161.811 244.762 161.601 243.887 161.179C243.013 160.751 242.368 160.161 241.952 159.409C241.536 158.656 241.377 157.785 241.475 156.795H243.236C243.169 157.535 243.306 158.161 243.649 158.675C243.997 159.188 244.493 159.58 245.135 159.849C245.783 160.112 246.529 160.243 247.372 160.243C248.308 160.243 249.167 160.087 249.95 159.775C250.732 159.457 251.377 159.017 251.885 158.455C252.398 157.886 252.716 157.226 252.839 156.474C252.949 155.838 252.872 155.303 252.609 154.869C252.353 154.435 251.952 154.071 251.408 153.777C250.87 153.478 250.228 153.215 249.482 152.989L247.336 152.328C245.936 151.9 244.893 151.298 244.208 150.521C243.53 149.745 243.288 148.754 243.484 147.55C243.655 146.535 244.074 145.645 244.74 144.881C245.413 144.111 246.247 143.511 247.244 143.083C248.241 142.655 249.317 142.441 250.472 142.441C251.64 142.441 252.634 142.658 253.453 143.093C254.279 143.527 254.89 144.126 255.287 144.89C255.691 145.648 255.841 146.52 255.737 147.504H254.068Z" fill="black"/>
<path d="M190 95C190 82.5244 187.543 70.171 182.769 58.6451C177.994 47.1191 170.997 36.6464 162.175 27.8249C153.354 19.0033 142.881 12.0056 131.355 7.23144C119.829 2.45725 107.476 -5.45325e-07 95 0L95 95H190Z" fill="#0204A6"/>
<path d="M7.56979e-06 190C12.4756 190 24.829 187.543 36.3549 182.769C47.8809 177.994 58.3536 170.997 67.1751 162.175C75.9967 153.354 82.9944 142.881 87.7686 131.355C92.5428 119.829 95 107.476 95 95L7.56979e-06 95V190Z" fill="#FB9EBB"/>
<path d="M95 0L0 95V0H95Z" fill="#FFCEE7"/>
</svg>
